<mxfile host="65bd71144e">
    <diagram id="9gbMqu-VR9pyEoC8TWno" name="Page-1">
        <mxGraphModel dx="975" dy="581" grid="1" gridSize="10" guides="1" tooltips="1" connect="1" arrows="1" fold="1" page="1" pageScale="1" pageWidth="1100" pageHeight="850" math="0" shadow="0">
            <root>
                <mxCell id="0"/>
                <mxCell id="1" parent="0"/>
                <mxCell id="492" value="Cliente( ID,saldo,descuento)" style="text;html=1;align=center;verticalAlign=middle;whiteSpace=wrap;rounded=0;" vertex="1" parent="1">
                    <mxGeometry x="270" y="240" width="710" height="30" as="geometry"/>
                </mxCell>
                <mxCell id="493" value="Direcciones(ID, numero, calle, pueblo,ciudad)" style="text;html=1;align=center;verticalAlign=middle;whiteSpace=wrap;rounded=0;" vertex="1" parent="1">
                    <mxGeometry x="270" y="270" width="710" height="30" as="geometry"/>
                </mxCell>
                <mxCell id="494" value="Pedido(ID,Fecha y hora, ID Direccion, ID cliente)" style="text;html=1;align=center;verticalAlign=middle;whiteSpace=wrap;rounded=0;" vertex="1" parent="1">
                    <mxGeometry x="270" y="326" width="710" height="30" as="geometry"/>
                </mxCell>
                <mxCell id="495" value="Articulos(ID,Descripcion&lt;span style=&quot;color: rgb(192, 192, 192); background-color: transparent;&quot;&gt;)&lt;/span&gt;" style="text;html=1;align=center;verticalAlign=middle;whiteSpace=wrap;rounded=0;" vertex="1" parent="1">
                    <mxGeometry x="249" y="386" width="710" height="30" as="geometry"/>
                </mxCell>
                <mxCell id="496" value="Fabrica(ID, Telefono,Total Articulos)" style="text;html=1;align=center;verticalAlign=middle;whiteSpace=wrap;rounded=0;" vertex="1" parent="1">
                    <mxGeometry x="249" y="446" width="710" height="30" as="geometry"/>
                </mxCell>
                <mxCell id="497" value="ClienteDireccion(IDcliente,IDdireccion)" style="text;html=1;align=center;verticalAlign=middle;whiteSpace=wrap;rounded=0;" vertex="1" parent="1">
                    <mxGeometry x="270" y="300" width="710" height="30" as="geometry"/>
                </mxCell>
                <mxCell id="498" value="ArticuloPedido(Id Pedido,Id Articulo,Cantidad)" style="text;html=1;align=center;verticalAlign=middle;whiteSpace=wrap;rounded=0;" vertex="1" parent="1">
                    <mxGeometry x="270" y="356" width="710" height="30" as="geometry"/>
                </mxCell>
                <mxCell id="499" value="Fabricarticulos(Id fabrica, ID articulo,Stock)" style="text;html=1;align=center;verticalAlign=middle;whiteSpace=wrap;rounded=0;" vertex="1" parent="1">
                    <mxGeometry x="249" y="416" width="710" height="30" as="geometry"/>
                </mxCell>
            </root>
        </mxGraphModel>
    </diagram>
</mxfile>